# xmcd
#
# Track frame offsets:
#	150
#	25242
#	54010
#	72757
#	93328
#	121808
#	143702
#	156425
#	183099
#	212613
#
# Disc length: 3279 seconds
#
# Revision: 1
# Processed by: cddbd v1.5.2PL0 Copyright (c) Steve Scherf et al.
# Submitted via: audiograbber 1.83.01
#
DISCID=7b0ccd0a
DTITLE=David Corley - Available Light
DYEAR=2015
DGENRE=Country
TTITLE0=Available Light
TTITLE1=Beyond the Fences
TTITLE2=The Joke
TTITLE3=Easy Mistake
TTITLE4=Dog Tales
TTITLE5=Unspoken Thing
TTITLE6=Lean
TTITLE7=Neptune  Line You're Leaving From
TTITLE8=The End of My Run
TTITLE9=The Calm Revolution
EXTD=
EXTT0=
EXTT1=
EXTT2=
EXTT3=
EXTT4=
EXTT5=
EXTT6=
EXTT7=
EXTT8=
EXTT9=
PLAYORDER=
